<svg width="14" height="17" viewBox="0 0 14 17" fill="none" xmlns="http://www.w3.org/2000/svg">
<path d="M13.0731 5.68278C12.5522 6.00168 12.1207 6.44753 11.8191 6.97859C11.5174 7.50965 11.3554 8.10856 11.3483 8.71928C11.3503 9.40663 11.554 10.0783 11.934 10.651C12.314 11.2238 12.8537 11.6725 13.4862 11.9416C13.2368 12.7462 12.8677 13.5086 12.3914 14.2034C11.7098 15.1846 10.9971 16.1657 9.91266 16.1657C8.82826 16.1657 8.54936 15.5357 7.29966 15.5357C6.08096 15.5357 5.64716 16.1864 4.65566 16.1864C3.66416 16.1864 2.97226 15.2775 2.17696 14.1621C1.12643 12.5995 0.54907 10.767 0.51416 8.88448C0.51416 5.78608 2.52816 4.14398 4.51106 4.14398C5.56456 4.14398 6.44246 4.83588 7.10346 4.83588C7.73346 4.83588 8.71466 4.10258 9.91266 4.10258C10.5286 4.08668 11.139 4.2225 11.6902 4.49806C12.2413 4.77362 12.7162 5.18047 13.0731 5.68278ZM9.34466 2.79098C9.87276 2.16974 10.1717 1.3861 10.1916 0.570976C10.1925 0.463519 10.1821 0.356264 10.1606 0.250977C9.25342 0.33959 8.41456 0.771951 7.81606 1.45938C7.28287 2.05586 6.97266 2.81857 6.93816 3.61788C6.93856 3.71508 6.94895 3.81199 6.96916 3.90708C7.04068 3.9206 7.11328 3.92752 7.18606 3.92778C7.60413 3.89451 8.01108 3.77658 8.38216 3.58115C8.75324 3.38573 9.08071 3.11689 9.34466 2.79098Z" fill="#000" fill-opacity="0.8"/>
</svg>
