<svg width="14" height="15" viewBox="0 0 14 15" fill="none" xmlns="http://www.w3.org/2000/svg">
<path d="M11.1834 3.02828H10.1629C10.0535 2.21726 9.65711 1.47228 9.04565 0.92837C8.4342 0.384462 7.6481 0.0776246 6.82986 0.0634766C6.01162 0.0776246 5.22553 0.384462 4.61407 0.92837C4.00262 1.47228 3.60627 2.21726 3.49686 3.02828H2.47686C1.91565 3.02865 1.37752 3.2517 0.98061 3.64846C0.583699 4.04522 0.360446 4.58327 0.359863 5.14448V12.86C0.360366 13.4211 0.583468 13.9591 0.980209 14.356C1.37695 14.7528 1.91492 14.976 2.47606 14.9767H11.1831C11.7443 14.9762 12.2824 14.753 12.6793 14.3562C13.0762 13.9593 13.2994 13.4212 13.2999 12.86V5.14448C13.2993 4.58335 13.0761 4.04538 12.6793 3.64863C12.2825 3.25189 11.7445 3.02878 11.1834 3.02828ZM6.82986 1.16308C7.35727 1.17454 7.86498 1.36565 8.26905 1.7048C8.67311 2.04395 8.94934 2.51084 9.05206 3.02828H4.60766C4.71039 2.51084 4.98661 2.04395 5.39068 1.7048C5.79475 1.36565 6.30245 1.17454 6.82986 1.16308ZM12.1999 12.86C12.1996 13.1296 12.0924 13.388 11.9018 13.5787C11.7112 13.7693 11.4528 13.8767 11.1833 13.8771H2.47636C2.20681 13.8766 1.94842 13.7693 1.75787 13.5786C1.56732 13.388 1.46015 13.1295 1.45986 12.86V5.14448C1.46018 4.87496 1.56739 4.61656 1.75797 4.42598C1.94855 4.2354 2.20694 4.12819 2.47646 4.12788H11.1835C11.453 4.12825 11.7113 4.23548 11.9018 4.42605C12.0924 4.61663 12.1995 4.87499 12.1999 5.14448V12.86Z" fill="white" fill-opacity="0.8"/>
</svg>
