<svg width="23" height="23" viewBox="0 0 23 23" fill="none" xmlns="http://www.w3.org/2000/svg">
<path d="M11.8799 22.1523C10.3831 22.1523 8.97233 21.8659 7.64746 21.293C6.32975 20.7201 5.16602 19.9287 4.15625 18.9189C3.14648 17.9092 2.35514 16.7454 1.78223 15.4277C1.20931 14.1029 0.922852 12.6921 0.922852 11.1953C0.922852 9.69857 1.20931 8.29134 1.78223 6.97363C2.35514 5.64876 3.1429 4.48145 4.14551 3.47168C5.15527 2.46191 6.31901 1.67057 7.63672 1.09766C8.96159 0.52474 10.3724 0.238281 11.8691 0.238281C13.3659 0.238281 14.7767 0.52474 16.1016 1.09766C17.4264 1.67057 18.5938 2.46191 19.6035 3.47168C20.6133 4.48145 21.4046 5.64876 21.9775 6.97363C22.5505 8.29134 22.8369 9.69857 22.8369 11.1953C22.8369 12.6921 22.5505 14.1029 21.9775 15.4277C21.4046 16.7454 20.6133 17.9092 19.6035 18.9189C18.5938 19.9287 17.4264 20.7201 16.1016 21.293C14.7839 21.8659 13.3766 22.1523 11.8799 22.1523ZM11.8799 20.3262C13.1475 20.3262 14.3327 20.0898 15.4355 19.6172C16.5384 19.1517 17.5052 18.5 18.3359 17.6621C19.1738 16.8242 19.8291 15.8538 20.3018 14.751C20.7744 13.6481 21.0107 12.4629 21.0107 11.1953C21.0107 9.92773 20.7744 8.74251 20.3018 7.63965C19.8291 6.53678 19.1738 5.56641 18.3359 4.72852C17.5052 3.89062 16.5348 3.23893 15.4248 2.77344C14.3219 2.30078 13.1367 2.06445 11.8691 2.06445C10.6016 2.06445 9.41634 2.30078 8.31348 2.77344C7.21061 3.23893 6.24382 3.89062 5.41309 4.72852C4.58236 5.56641 3.93066 6.53678 3.45801 7.63965C2.99251 8.74251 2.75977 9.92773 2.75977 11.1953C2.75977 12.4629 2.99251 13.6481 3.45801 14.751C3.93066 15.8538 4.58236 16.8242 5.41309 17.6621C6.25098 18.5 7.22135 19.1517 8.32422 19.6172C9.42708 20.0898 10.6123 20.3262 11.8799 20.3262ZM9.98926 15.1484C9.75293 15.2845 9.52376 15.3096 9.30176 15.2236C9.08691 15.1377 8.97949 14.973 8.97949 14.7295V7.69336C8.97949 7.44987 9.09049 7.28516 9.3125 7.19922C9.54167 7.11328 9.76725 7.13477 9.98926 7.26367L15.7363 10.6689C15.944 10.7835 16.0479 10.9626 16.0479 11.2061C16.0479 11.4495 15.944 11.6322 15.7363 11.7539L9.98926 15.1484Z" fill="#1D1D1D"/>
</svg>
