<svg width="15" height="15" viewBox="0 0 15 15" fill="none" xmlns="http://www.w3.org/2000/svg">
<path d="M13.9872 13.2022L10.1172 9.3322C10.8182 8.4032 11.2392 7.2512 11.2392 6.0002C11.2392 2.9402 8.75016 0.450195 5.68916 0.450195C2.62916 0.450195 0.13916 2.9402 0.13916 6.0002C0.13916 9.0612 2.62916 11.5502 5.68916 11.5502C6.94016 11.5502 8.09216 11.1292 9.02116 10.4282L12.8912 14.2982C13.0422 14.4492 13.2412 14.5262 13.4392 14.5262C13.6372 14.5262 13.8352 14.4502 13.9872 14.2982C14.2902 13.9952 14.2902 13.5052 13.9872 13.2022ZM1.23916 6.0002C1.23916 3.5462 3.23616 1.5502 5.68916 1.5502C8.14316 1.5502 10.1392 3.5472 10.1392 6.0002C10.1392 8.4532 8.14316 10.4502 5.68916 10.4502C3.23516 10.4502 1.23916 8.4542 1.23916 6.0002Z" fill="white" fill-opacity="0.8"/>
</svg>
